<svg version="1.1" xmlns="http://www.w3.org/2000/svg" x="0" y="0" viewBox="0 0 542.3 270.7" xml:space="preserve">
  <style>.st0{fill:#ff1482}</style>
  <path d="M117.6 160.4c-27.7-8.8-120 82-48 107s75.7-98.2 48-107M362.3 105.7c0 33.1-26.9 60-60 60s-60-26.9-60-60 26.9-60 60-60 60 26.9 60 60" class="st0"/>
  <path d="M403.3 165.6c-46.9 0-39.8-119.7 12.9-119.7 20.1 0 23.3 24.1 23.3 24.1s8.7-16.5 24.5-16.5 20.8 17.9 20.8 17.9S496 46 517.1 46c52.4 0 14.3 119.7-33.9 119.7-31.7 0-31.1-47.7-31.1-47.7s-17.9 47.6-48.8 47.6M120 105.7c0 33.1-26.9 60-60 60s-60-26.9-60-60 26.9-60 60-60 60 26.9 60 60" class="st0"/>
  <path d="M183.3.5c36 10.1-24.1 114.6-24.1 114.6s76.3-23.1 76.3 15.6c0 23.1-25.7 34.9-51.5 34.9-98.2 0-38.2-175.7-.7-165.1" class="st0"/>
</svg>